<svg xmlns="http://www.w3.org/2000/svg" xml:space="preserve" viewBox="0 0 200 200">
  <path fill="#3E3A39" d="M177.96 55v90l-77.94 45-77.94-45V55l77.94-45 77.94 45zm-22.94 39.14h-19.14V75c-5.82 2.05-10 7.61-10 14.14v5h-5c-6.53 0-12.09 4.18-14.14 10h19.14v40c0 5.521 4.48 10 10 10h5c6.53 0 12.09-4.18 14.14-10h-14.14c-2.76 0-5-2.239-5-5v-35h5c6.53 0 12.09-4.18 14.14-10zm-55-14.14c2.76 0 5-2.24 5-5 0-16.57-13.43-30-30-30s-30 13.43-30 30c0 10.44 5.33 19.64 13.43 25 4.75 3.16 10.44 5 16.57 5 11.05 0 20 8.95 20 20s-8.95 20-20 20-20-8.95-20-20c0-2.76-2.24-5-5-5s-5 2.24-5 5c0 16.57 13.43 30 30 30s30-13.43 30-30c0-10.44-5.33-19.64-13.43-25-4.75-3.16-10.44-5-16.57-5-11.05 0-20-8.95-20-20s8.95-20 20-20 20 8.95 20 20c0 2.76 2.24 5 5 5z"/>
</svg>
